<mxfile host="Electron" modified="2023-11-19T10:52:13.244Z" agent="Mozilla/5.0 (Windows NT 10.0; Win64; x64) AppleWebKit/537.36 (KHTML, like Gecko) draw.io/22.1.2 Chrome/114.0.5735.289 Electron/25.9.4 Safari/537.36" etag="VuIotWPFteLSm55egQFt" version="22.1.2" type="device">
  <diagram name="Page-1" id="RroSI-r2bQ-ukj9WdpZ-">
    <mxGraphModel dx="1909" dy="1160" grid="1" gridSize="10" guides="1" tooltips="1" connect="1" arrows="1" fold="1" page="1" pageScale="1" pageWidth="1169" pageHeight="827" math="0" shadow="0">
      <root>
        <mxCell id="0" />
        <mxCell id="1" parent="0" />
        <mxCell id="GySrszM3OudxkX1uvP5f-103" value="" style="group" vertex="1" connectable="0" parent="1">
          <mxGeometry x="194" y="280" width="781" height="140" as="geometry" />
        </mxCell>
        <mxCell id="GySrszM3OudxkX1uvP5f-2" value="&lt;font style=&quot;font-size: 19px;&quot;&gt;Customer&lt;/font&gt;" style="html=1;dashed=0;whiteSpace=wrap;fontSize=19;" vertex="1" parent="GySrszM3OudxkX1uvP5f-103">
          <mxGeometry width="120" height="80" as="geometry" />
        </mxCell>
        <mxCell id="GySrszM3OudxkX1uvP5f-3" value="" style="endArrow=classic;html=1;rounded=0;exitX=1;exitY=0.25;exitDx=0;exitDy=0;entryX=0;entryY=0.25;entryDx=0;entryDy=0;fontSize=16;" edge="1" parent="GySrszM3OudxkX1uvP5f-103" source="GySrszM3OudxkX1uvP5f-2" target="GySrszM3OudxkX1uvP5f-26">
          <mxGeometry relative="1" as="geometry">
            <mxPoint x="345" as="sourcePoint" />
            <mxPoint x="445" as="targetPoint" />
          </mxGeometry>
        </mxCell>
        <mxCell id="GySrszM3OudxkX1uvP5f-4" value="Label" style="edgeLabel;resizable=0;html=1;align=center;verticalAlign=middle;fontSize=15;" connectable="0" vertex="1" parent="GySrszM3OudxkX1uvP5f-3">
          <mxGeometry relative="1" as="geometry" />
        </mxCell>
        <mxCell id="GySrszM3OudxkX1uvP5f-5" value="Customer Info" style="edgeLabel;html=1;align=center;verticalAlign=middle;resizable=0;points=[];fontSize=15;" vertex="1" connectable="0" parent="GySrszM3OudxkX1uvP5f-3">
          <mxGeometry relative="1" as="geometry">
            <mxPoint as="offset" />
          </mxGeometry>
        </mxCell>
        <mxCell id="GySrszM3OudxkX1uvP5f-9" value="" style="endArrow=classic;html=1;rounded=0;entryX=1;entryY=0.75;entryDx=0;entryDy=0;exitX=0;exitY=0.75;exitDx=0;exitDy=0;fontSize=16;" edge="1" parent="GySrszM3OudxkX1uvP5f-103" source="GySrszM3OudxkX1uvP5f-26" target="GySrszM3OudxkX1uvP5f-2">
          <mxGeometry relative="1" as="geometry">
            <mxPoint x="345" as="sourcePoint" />
            <mxPoint x="445" as="targetPoint" />
          </mxGeometry>
        </mxCell>
        <mxCell id="GySrszM3OudxkX1uvP5f-10" value="Bill Info" style="edgeLabel;resizable=0;html=1;align=center;verticalAlign=middle;fontSize=15;" connectable="0" vertex="1" parent="GySrszM3OudxkX1uvP5f-9">
          <mxGeometry relative="1" as="geometry" />
        </mxCell>
        <mxCell id="GySrszM3OudxkX1uvP5f-12" value="&lt;font style=&quot;font-size: 19px;&quot;&gt;Employee&lt;/font&gt;" style="html=1;dashed=0;whiteSpace=wrap;fontSize=19;" vertex="1" parent="GySrszM3OudxkX1uvP5f-103">
          <mxGeometry x="661" width="120" height="80" as="geometry" />
        </mxCell>
        <mxCell id="GySrszM3OudxkX1uvP5f-13" value="" style="endArrow=classic;html=1;rounded=0;entryX=0;entryY=0.25;entryDx=0;entryDy=0;exitX=1;exitY=0.25;exitDx=0;exitDy=0;fontSize=16;" edge="1" parent="GySrszM3OudxkX1uvP5f-103" source="GySrszM3OudxkX1uvP5f-26" target="GySrszM3OudxkX1uvP5f-12">
          <mxGeometry relative="1" as="geometry">
            <mxPoint x="510" y="-10" as="sourcePoint" />
            <mxPoint x="570" y="-110" as="targetPoint" />
          </mxGeometry>
        </mxCell>
        <mxCell id="GySrszM3OudxkX1uvP5f-14" value="List of Customers" style="edgeLabel;resizable=0;html=1;align=center;verticalAlign=middle;fontSize=15;" connectable="0" vertex="1" parent="GySrszM3OudxkX1uvP5f-13">
          <mxGeometry relative="1" as="geometry" />
        </mxCell>
        <mxCell id="GySrszM3OudxkX1uvP5f-24" value="&lt;font style=&quot;font-size: 20px;&quot;&gt;Fig 1: Context Diagram, Level 0&lt;/font&gt;" style="text;html=1;strokeColor=none;fillColor=none;align=center;verticalAlign=middle;whiteSpace=wrap;rounded=0;fontSize=20;" vertex="1" parent="GySrszM3OudxkX1uvP5f-103">
          <mxGeometry x="220" y="110" width="320" height="30" as="geometry" />
        </mxCell>
        <mxCell id="GySrszM3OudxkX1uvP5f-25" value="" style="group" vertex="1" connectable="0" parent="GySrszM3OudxkX1uvP5f-103">
          <mxGeometry x="280" width="200" height="80" as="geometry" />
        </mxCell>
        <mxCell id="GySrszM3OudxkX1uvP5f-26" value="Hotel Management&lt;br style=&quot;font-size: 19px;&quot;&gt;System" style="rounded=1;whiteSpace=wrap;html=1;fontSize=19;verticalAlign=bottom;horizontal=1;noLabel=0;" vertex="1" parent="GySrszM3OudxkX1uvP5f-25">
          <mxGeometry width="200" height="80" as="geometry" />
        </mxCell>
        <mxCell id="GySrszM3OudxkX1uvP5f-27" value="" style="endArrow=none;html=1;rounded=0;entryX=1;entryY=0.25;entryDx=0;entryDy=0;exitX=0;exitY=0.25;exitDx=0;exitDy=0;movable=1;resizable=1;rotatable=1;deletable=1;editable=1;locked=0;connectable=1;" edge="1" parent="GySrszM3OudxkX1uvP5f-25" source="GySrszM3OudxkX1uvP5f-26" target="GySrszM3OudxkX1uvP5f-26">
          <mxGeometry width="50" height="50" relative="1" as="geometry">
            <mxPoint x="420" y="480" as="sourcePoint" />
            <mxPoint x="470" y="430" as="targetPoint" />
          </mxGeometry>
        </mxCell>
        <mxCell id="GySrszM3OudxkX1uvP5f-28" value="0.0" style="text;html=1;strokeColor=none;fillColor=none;align=center;verticalAlign=bottom;whiteSpace=wrap;rounded=0;container=0;movable=1;resizable=1;rotatable=1;deletable=1;editable=1;locked=0;connectable=1;" vertex="1" parent="GySrszM3OudxkX1uvP5f-25">
          <mxGeometry x="85" y="10" width="30" height="10" as="geometry" />
        </mxCell>
        <mxCell id="GySrszM3OudxkX1uvP5f-101" style="edgeStyle=orthogonalEdgeStyle;rounded=0;orthogonalLoop=1;jettySize=auto;html=1;exitX=0;exitY=0.75;exitDx=0;exitDy=0;entryX=1;entryY=0.75;entryDx=0;entryDy=0;" edge="1" parent="GySrszM3OudxkX1uvP5f-103" source="GySrszM3OudxkX1uvP5f-12" target="GySrszM3OudxkX1uvP5f-26">
          <mxGeometry relative="1" as="geometry" />
        </mxCell>
        <mxCell id="GySrszM3OudxkX1uvP5f-102" value="Employee Info" style="edgeLabel;html=1;align=center;verticalAlign=middle;resizable=0;points=[];fontSize=15;" vertex="1" connectable="0" parent="GySrszM3OudxkX1uvP5f-101">
          <mxGeometry x="0.1473" y="2" relative="1" as="geometry">
            <mxPoint as="offset" />
          </mxGeometry>
        </mxCell>
        <mxCell id="GySrszM3OudxkX1uvP5f-99" style="edgeStyle=orthogonalEdgeStyle;rounded=0;orthogonalLoop=1;jettySize=auto;html=1;entryX=0;entryY=0.5;entryDx=0;entryDy=0;" edge="1" parent="GySrszM3OudxkX1uvP5f-103" source="GySrszM3OudxkX1uvP5f-26" target="GySrszM3OudxkX1uvP5f-12">
          <mxGeometry relative="1" as="geometry" />
        </mxCell>
        <mxCell id="GySrszM3OudxkX1uvP5f-100" value="List of Accomodations" style="edgeLabel;html=1;align=center;verticalAlign=middle;resizable=0;points=[];fontSize=15;" vertex="1" connectable="0" parent="GySrszM3OudxkX1uvP5f-99">
          <mxGeometry x="-0.0156" y="-2" relative="1" as="geometry">
            <mxPoint as="offset" />
          </mxGeometry>
        </mxCell>
        <mxCell id="GySrszM3OudxkX1uvP5f-273" value="" style="group" vertex="1" connectable="0" parent="1">
          <mxGeometry x="314" y="860" width="540.5" height="584" as="geometry" />
        </mxCell>
        <mxCell id="GySrszM3OudxkX1uvP5f-271" value="" style="group" vertex="1" connectable="0" parent="GySrszM3OudxkX1uvP5f-273">
          <mxGeometry width="540.5" height="540" as="geometry" />
        </mxCell>
        <mxCell id="GySrszM3OudxkX1uvP5f-68" value="Customer" style="rounded=0;whiteSpace=wrap;html=1;fontSize=19;" vertex="1" parent="GySrszM3OudxkX1uvP5f-271">
          <mxGeometry width="120" height="80" as="geometry" />
        </mxCell>
        <mxCell id="GySrszM3OudxkX1uvP5f-84" value="D1&lt;span style=&quot;white-space: pre; font-size: 13px;&quot;&gt;&#x9;&lt;/span&gt;&amp;nbsp;Customer DB" style="html=1;dashed=0;whiteSpace=wrap;shape=mxgraph.dfd.dataStoreID;align=left;spacingLeft=3;points=[[0,0],[0.5,0],[1,0],[0,0.5],[1,0.5],[0,1],[0.5,1],[1,1]];fontSize=13;" vertex="1" parent="GySrszM3OudxkX1uvP5f-271">
          <mxGeometry x="261" y="141" width="120" height="30" as="geometry" />
        </mxCell>
        <mxCell id="GySrszM3OudxkX1uvP5f-87" value="" style="endArrow=classic;html=1;rounded=0;exitX=0.986;exitY=0.336;exitDx=0;exitDy=0;entryX=-0.003;entryY=0.343;entryDx=0;entryDy=0;fontSize=16;exitPerimeter=0;entryPerimeter=0;" edge="1" parent="GySrszM3OudxkX1uvP5f-271" source="GySrszM3OudxkX1uvP5f-68" target="GySrszM3OudxkX1uvP5f-237">
          <mxGeometry relative="1" as="geometry">
            <mxPoint x="126" y="-41" as="sourcePoint" />
            <mxPoint x="301.5999999999999" y="-41.92000000000007" as="targetPoint" />
          </mxGeometry>
        </mxCell>
        <mxCell id="GySrszM3OudxkX1uvP5f-88" value="Customer Info" style="edgeLabel;resizable=0;html=1;align=center;verticalAlign=middle;fontSize=15;" connectable="0" vertex="1" parent="GySrszM3OudxkX1uvP5f-87">
          <mxGeometry relative="1" as="geometry" />
        </mxCell>
        <mxCell id="GySrszM3OudxkX1uvP5f-92" value="" style="endArrow=classic;html=1;rounded=0;entryX=1;entryY=0.75;entryDx=0;entryDy=0;exitX=0;exitY=0.75;exitDx=0;exitDy=0;fontSize=16;" edge="1" parent="GySrszM3OudxkX1uvP5f-271">
          <mxGeometry relative="1" as="geometry">
            <mxPoint x="276" y="50" as="sourcePoint" />
            <mxPoint x="120" y="50" as="targetPoint" />
          </mxGeometry>
        </mxCell>
        <mxCell id="GySrszM3OudxkX1uvP5f-93" value="Label" style="edgeLabel;resizable=0;html=1;align=center;verticalAlign=middle;fontSize=15;" connectable="0" vertex="1" parent="GySrszM3OudxkX1uvP5f-92">
          <mxGeometry relative="1" as="geometry" />
        </mxCell>
        <mxCell id="GySrszM3OudxkX1uvP5f-236" value="" style="group" vertex="1" connectable="0" parent="GySrszM3OudxkX1uvP5f-271">
          <mxGeometry x="276" width="200" height="80" as="geometry" />
        </mxCell>
        <mxCell id="GySrszM3OudxkX1uvP5f-237" value="Manage Customer Information" style="rounded=1;whiteSpace=wrap;html=1;fontSize=19;verticalAlign=bottom;horizontal=1;noLabel=0;container=0;" vertex="1" parent="GySrszM3OudxkX1uvP5f-236">
          <mxGeometry width="200" height="80" as="geometry">
            <mxRectangle width="210" height="60" as="alternateBounds" />
          </mxGeometry>
        </mxCell>
        <UserObject label="1.1" id="GySrszM3OudxkX1uvP5f-238">
          <mxCell style="text;html=1;strokeColor=none;fillColor=none;align=center;verticalAlign=bottom;whiteSpace=wrap;rounded=0;container=0;movable=1;resizable=1;rotatable=1;deletable=1;editable=1;locked=0;connectable=1;" vertex="1" parent="GySrszM3OudxkX1uvP5f-236">
            <mxGeometry width="200" height="20" as="geometry" />
          </mxCell>
        </UserObject>
        <mxCell id="GySrszM3OudxkX1uvP5f-239" value="" style="endArrow=none;html=1;rounded=0;entryX=0;entryY=0.25;entryDx=0;entryDy=0;exitX=1;exitY=0.25;exitDx=0;exitDy=0;movable=1;resizable=1;rotatable=1;deletable=1;editable=1;locked=0;connectable=1;" edge="1" parent="GySrszM3OudxkX1uvP5f-236" source="GySrszM3OudxkX1uvP5f-237" target="GySrszM3OudxkX1uvP5f-237">
          <mxGeometry width="50" height="50" relative="1" as="geometry">
            <mxPoint x="805" y="640" as="sourcePoint" />
            <mxPoint x="755" y="740" as="targetPoint" />
          </mxGeometry>
        </mxCell>
        <mxCell id="GySrszM3OudxkX1uvP5f-240" value="D2&lt;span style=&quot;white-space: pre; font-size: 13px;&quot;&gt;&#x9;&lt;/span&gt;&amp;nbsp;Reservation DB" style="html=1;dashed=0;whiteSpace=wrap;shape=mxgraph.dfd.dataStoreID;align=left;spacingLeft=3;points=[[0,0],[0.5,0],[1,0],[0,0.5],[1,0.5],[0,1],[0.5,1],[1,1]];fontSize=13;" vertex="1" parent="GySrszM3OudxkX1uvP5f-271">
          <mxGeometry x="410.5" y="141" width="130" height="30" as="geometry" />
        </mxCell>
        <mxCell id="GySrszM3OudxkX1uvP5f-241" value="" style="group;verticalAlign=middle;" vertex="1" connectable="0" parent="GySrszM3OudxkX1uvP5f-271">
          <mxGeometry x="276" y="240" width="200" height="80" as="geometry" />
        </mxCell>
        <mxCell id="GySrszM3OudxkX1uvP5f-242" value="Manage Reservations" style="rounded=1;whiteSpace=wrap;html=1;fontSize=19;verticalAlign=middle;horizontal=1;noLabel=0;container=0;align=center;" vertex="1" parent="GySrszM3OudxkX1uvP5f-241">
          <mxGeometry width="200" height="80" as="geometry">
            <mxRectangle width="210" height="60" as="alternateBounds" />
          </mxGeometry>
        </mxCell>
        <UserObject label="1.2" id="GySrszM3OudxkX1uvP5f-243">
          <mxCell style="text;html=1;strokeColor=none;fillColor=none;align=center;verticalAlign=bottom;whiteSpace=wrap;rounded=0;container=0;movable=1;resizable=1;rotatable=1;deletable=1;editable=1;locked=0;connectable=1;" vertex="1" parent="GySrszM3OudxkX1uvP5f-241">
            <mxGeometry width="200" height="20" as="geometry" />
          </mxCell>
        </UserObject>
        <mxCell id="GySrszM3OudxkX1uvP5f-244" value="" style="endArrow=none;html=1;rounded=0;entryX=0;entryY=0.25;entryDx=0;entryDy=0;exitX=1;exitY=0.25;exitDx=0;exitDy=0;movable=1;resizable=1;rotatable=1;deletable=1;editable=1;locked=0;connectable=1;" edge="1" parent="GySrszM3OudxkX1uvP5f-241" source="GySrszM3OudxkX1uvP5f-242" target="GySrszM3OudxkX1uvP5f-242">
          <mxGeometry width="50" height="50" relative="1" as="geometry">
            <mxPoint x="805" y="640" as="sourcePoint" />
            <mxPoint x="755" y="740" as="targetPoint" />
          </mxGeometry>
        </mxCell>
        <mxCell id="GySrszM3OudxkX1uvP5f-245" style="edgeStyle=orthogonalEdgeStyle;rounded=0;orthogonalLoop=1;jettySize=auto;html=1;exitX=0.25;exitY=1;exitDx=0;exitDy=0;entryX=0.5;entryY=0;entryDx=0;entryDy=0;" edge="1" parent="GySrszM3OudxkX1uvP5f-271" source="GySrszM3OudxkX1uvP5f-237" target="GySrszM3OudxkX1uvP5f-84">
          <mxGeometry relative="1" as="geometry" />
        </mxCell>
        <mxCell id="GySrszM3OudxkX1uvP5f-246" value="Assigned Accomodation" style="edgeLabel;html=1;align=center;verticalAlign=middle;resizable=0;points=[];fontSize=15;" vertex="1" connectable="0" parent="GySrszM3OudxkX1uvP5f-245">
          <mxGeometry x="0.0144" relative="1" as="geometry">
            <mxPoint as="offset" />
          </mxGeometry>
        </mxCell>
        <mxCell id="GySrszM3OudxkX1uvP5f-247" style="edgeStyle=orthogonalEdgeStyle;rounded=0;orthogonalLoop=1;jettySize=auto;html=1;exitX=0.75;exitY=1;exitDx=0;exitDy=0;entryX=0.5;entryY=0;entryDx=0;entryDy=0;startArrow=classic;startFill=1;endArrow=none;endFill=0;" edge="1" parent="GySrszM3OudxkX1uvP5f-271" source="GySrszM3OudxkX1uvP5f-237" target="GySrszM3OudxkX1uvP5f-240">
          <mxGeometry relative="1" as="geometry" />
        </mxCell>
        <mxCell id="GySrszM3OudxkX1uvP5f-249" value="Reservation LIst" style="edgeLabel;html=1;align=center;verticalAlign=middle;resizable=0;points=[];fontSize=15;" vertex="1" connectable="0" parent="GySrszM3OudxkX1uvP5f-247">
          <mxGeometry x="0.059" relative="1" as="geometry">
            <mxPoint x="30" as="offset" />
          </mxGeometry>
        </mxCell>
        <mxCell id="GySrszM3OudxkX1uvP5f-250" style="edgeStyle=orthogonalEdgeStyle;rounded=0;orthogonalLoop=1;jettySize=auto;html=1;entryX=0.75;entryY=0;entryDx=0;entryDy=0;" edge="1" parent="GySrszM3OudxkX1uvP5f-271" source="GySrszM3OudxkX1uvP5f-240" target="GySrszM3OudxkX1uvP5f-243">
          <mxGeometry relative="1" as="geometry" />
        </mxCell>
        <mxCell id="GySrszM3OudxkX1uvP5f-251" value="Details" style="edgeLabel;html=1;align=center;verticalAlign=middle;resizable=0;points=[];fontSize=15;" vertex="1" connectable="0" parent="GySrszM3OudxkX1uvP5f-250">
          <mxGeometry x="-0.0221" relative="1" as="geometry">
            <mxPoint as="offset" />
          </mxGeometry>
        </mxCell>
        <mxCell id="GySrszM3OudxkX1uvP5f-252" style="edgeStyle=orthogonalEdgeStyle;rounded=0;orthogonalLoop=1;jettySize=auto;html=1;exitX=0.25;exitY=0;exitDx=0;exitDy=0;entryX=0.5;entryY=1;entryDx=0;entryDy=0;" edge="1" parent="GySrszM3OudxkX1uvP5f-271" source="GySrszM3OudxkX1uvP5f-243" target="GySrszM3OudxkX1uvP5f-84">
          <mxGeometry relative="1" as="geometry" />
        </mxCell>
        <mxCell id="GySrszM3OudxkX1uvP5f-253" value="Requested Reservation" style="edgeLabel;html=1;align=center;verticalAlign=middle;resizable=0;points=[];fontSize=15;" vertex="1" connectable="0" parent="GySrszM3OudxkX1uvP5f-252">
          <mxGeometry x="0.0502" relative="1" as="geometry">
            <mxPoint as="offset" />
          </mxGeometry>
        </mxCell>
        <mxCell id="GySrszM3OudxkX1uvP5f-254" value="Employee" style="html=1;dashed=0;whiteSpace=wrap;fontSize=19;" vertex="1" parent="GySrszM3OudxkX1uvP5f-271">
          <mxGeometry x="16" y="380" width="120" height="62" as="geometry" />
        </mxCell>
        <mxCell id="GySrszM3OudxkX1uvP5f-255" value="D3&lt;span style=&quot;white-space: pre; font-size: 13px;&quot;&gt;&#x9;&lt;/span&gt;&amp;nbsp;Employee DB" style="html=1;dashed=0;whiteSpace=wrap;shape=mxgraph.dfd.dataStoreID;align=left;spacingLeft=3;points=[[0,0],[0.5,0],[1,0],[0,0.5],[1,0.5],[0,1],[0.5,1],[1,1]];fontSize=13;" vertex="1" parent="GySrszM3OudxkX1uvP5f-271">
          <mxGeometry x="290.5" y="386" width="120" height="30" as="geometry" />
        </mxCell>
        <mxCell id="GySrszM3OudxkX1uvP5f-258" value="" style="group;verticalAlign=middle;" vertex="1" connectable="0" parent="GySrszM3OudxkX1uvP5f-271">
          <mxGeometry x="281" y="460" width="200" height="80" as="geometry" />
        </mxCell>
        <mxCell id="GySrszM3OudxkX1uvP5f-259" value="Manage Employee" style="rounded=1;whiteSpace=wrap;html=1;fontSize=19;verticalAlign=middle;horizontal=1;noLabel=0;container=0;align=center;" vertex="1" parent="GySrszM3OudxkX1uvP5f-258">
          <mxGeometry width="200" height="80" as="geometry">
            <mxRectangle width="210" height="60" as="alternateBounds" />
          </mxGeometry>
        </mxCell>
        <UserObject label="1.2" id="GySrszM3OudxkX1uvP5f-260">
          <mxCell style="text;html=1;strokeColor=none;fillColor=none;align=center;verticalAlign=bottom;whiteSpace=wrap;rounded=0;container=0;movable=1;resizable=1;rotatable=1;deletable=1;editable=1;locked=0;connectable=1;" vertex="1" parent="GySrszM3OudxkX1uvP5f-258">
            <mxGeometry width="200" height="20" as="geometry" />
          </mxCell>
        </UserObject>
        <mxCell id="GySrszM3OudxkX1uvP5f-261" value="" style="endArrow=none;html=1;rounded=0;entryX=0;entryY=0.25;entryDx=0;entryDy=0;exitX=1;exitY=0.25;exitDx=0;exitDy=0;movable=1;resizable=1;rotatable=1;deletable=1;editable=1;locked=0;connectable=1;" edge="1" parent="GySrszM3OudxkX1uvP5f-258" source="GySrszM3OudxkX1uvP5f-259" target="GySrszM3OudxkX1uvP5f-259">
          <mxGeometry width="50" height="50" relative="1" as="geometry">
            <mxPoint x="805" y="640" as="sourcePoint" />
            <mxPoint x="755" y="740" as="targetPoint" />
          </mxGeometry>
        </mxCell>
        <mxCell id="GySrszM3OudxkX1uvP5f-262" style="edgeStyle=orthogonalEdgeStyle;rounded=0;orthogonalLoop=1;jettySize=auto;html=1;entryX=0.327;entryY=0.008;entryDx=0;entryDy=0;entryPerimeter=0;" edge="1" parent="GySrszM3OudxkX1uvP5f-271" source="GySrszM3OudxkX1uvP5f-255" target="GySrszM3OudxkX1uvP5f-260">
          <mxGeometry relative="1" as="geometry" />
        </mxCell>
        <mxCell id="GySrszM3OudxkX1uvP5f-263" value="List of Employees" style="edgeLabel;html=1;align=center;verticalAlign=middle;resizable=0;points=[];fontSize=15;" vertex="1" connectable="0" parent="GySrszM3OudxkX1uvP5f-262">
          <mxGeometry x="0.0779" y="-3" relative="1" as="geometry">
            <mxPoint x="3" y="-3" as="offset" />
          </mxGeometry>
        </mxCell>
        <mxCell id="GySrszM3OudxkX1uvP5f-256" style="edgeStyle=orthogonalEdgeStyle;rounded=0;orthogonalLoop=1;jettySize=auto;html=1;entryX=0;entryY=0.5;entryDx=0;entryDy=0;" edge="1" parent="GySrszM3OudxkX1uvP5f-271" source="GySrszM3OudxkX1uvP5f-254" target="GySrszM3OudxkX1uvP5f-255">
          <mxGeometry relative="1" as="geometry" />
        </mxCell>
        <mxCell id="GySrszM3OudxkX1uvP5f-257" value="Employee Info" style="edgeLabel;html=1;align=center;verticalAlign=middle;resizable=0;points=[];fontSize=15;" vertex="1" connectable="0" parent="GySrszM3OudxkX1uvP5f-256">
          <mxGeometry x="-0.055" relative="1" as="geometry">
            <mxPoint as="offset" />
          </mxGeometry>
        </mxCell>
        <mxCell id="GySrszM3OudxkX1uvP5f-264" style="edgeStyle=orthogonalEdgeStyle;rounded=0;orthogonalLoop=1;jettySize=auto;html=1;entryX=0.412;entryY=1.035;entryDx=0;entryDy=0;entryPerimeter=0;" edge="1" parent="GySrszM3OudxkX1uvP5f-271" source="GySrszM3OudxkX1uvP5f-255" target="GySrszM3OudxkX1uvP5f-242">
          <mxGeometry relative="1" as="geometry" />
        </mxCell>
        <mxCell id="GySrszM3OudxkX1uvP5f-265" value="Employee Details" style="edgeLabel;html=1;align=center;verticalAlign=middle;resizable=0;points=[];fontSize=15;" vertex="1" connectable="0" parent="GySrszM3OudxkX1uvP5f-264">
          <mxGeometry x="-0.0204" y="-1" relative="1" as="geometry">
            <mxPoint as="offset" />
          </mxGeometry>
        </mxCell>
        <mxCell id="GySrszM3OudxkX1uvP5f-267" style="edgeStyle=orthogonalEdgeStyle;rounded=0;orthogonalLoop=1;jettySize=auto;html=1;exitX=0.5;exitY=0;exitDx=0;exitDy=0;entryX=0;entryY=1;entryDx=0;entryDy=0;" edge="1" parent="GySrszM3OudxkX1uvP5f-271" source="GySrszM3OudxkX1uvP5f-266" target="GySrszM3OudxkX1uvP5f-243">
          <mxGeometry relative="1" as="geometry">
            <mxPoint x="256" y="260" as="targetPoint" />
            <mxPoint x="136" y="296" as="sourcePoint" />
            <Array as="points">
              <mxPoint x="76" y="260" />
            </Array>
          </mxGeometry>
        </mxCell>
        <mxCell id="GySrszM3OudxkX1uvP5f-268" value="List of Available Rooms" style="edgeLabel;html=1;align=center;verticalAlign=middle;resizable=0;points=[];fontSize=15;" vertex="1" connectable="0" parent="GySrszM3OudxkX1uvP5f-267">
          <mxGeometry x="-0.0054" relative="1" as="geometry">
            <mxPoint as="offset" />
          </mxGeometry>
        </mxCell>
        <mxCell id="GySrszM3OudxkX1uvP5f-266" value="D4&lt;span style=&quot;white-space: pre; font-size: 13px;&quot;&gt;&#x9;&lt;/span&gt;&amp;nbsp;Room/Facilities DB" style="html=1;dashed=0;whiteSpace=wrap;shape=mxgraph.dfd.dataStoreID;align=left;spacingLeft=3;points=[[0,0],[0.5,0],[1,0],[0,0.5],[1,0.5],[0,1],[0.5,1],[1,1]];fontSize=13;" vertex="1" parent="GySrszM3OudxkX1uvP5f-271">
          <mxGeometry x="16" y="280" width="150" height="30" as="geometry" />
        </mxCell>
        <mxCell id="GySrszM3OudxkX1uvP5f-269" style="edgeStyle=orthogonalEdgeStyle;rounded=0;orthogonalLoop=1;jettySize=auto;html=1;entryX=0.401;entryY=1.044;entryDx=0;entryDy=0;entryPerimeter=0;" edge="1" parent="GySrszM3OudxkX1uvP5f-271" source="GySrszM3OudxkX1uvP5f-254" target="GySrszM3OudxkX1uvP5f-266">
          <mxGeometry relative="1" as="geometry" />
        </mxCell>
        <mxCell id="GySrszM3OudxkX1uvP5f-270" value="Room and Facility report" style="edgeLabel;html=1;align=center;verticalAlign=middle;resizable=0;points=[];fontSize=15;" vertex="1" connectable="0" parent="GySrszM3OudxkX1uvP5f-269">
          <mxGeometry x="0.1272" y="1" relative="1" as="geometry">
            <mxPoint as="offset" />
          </mxGeometry>
        </mxCell>
        <mxCell id="GySrszM3OudxkX1uvP5f-272" value="&lt;font style=&quot;font-size: 20px;&quot;&gt;Fig 3: Level 2 Data Flow Diagram&lt;/font&gt;" style="text;html=1;strokeColor=none;fillColor=none;align=center;verticalAlign=middle;whiteSpace=wrap;rounded=0;fontSize=20;" vertex="1" parent="GySrszM3OudxkX1uvP5f-273">
          <mxGeometry x="110.25" y="554" width="320" height="30" as="geometry" />
        </mxCell>
        <mxCell id="GySrszM3OudxkX1uvP5f-274" value="" style="group" vertex="1" connectable="0" parent="1">
          <mxGeometry x="205" y="457" width="760" height="370" as="geometry" />
        </mxCell>
        <mxCell id="GySrszM3OudxkX1uvP5f-65" value="&lt;font style=&quot;font-size: 20px;&quot;&gt;Fig 2: Level 1 Data Flow Diagram&lt;/font&gt;" style="text;html=1;strokeColor=none;fillColor=none;align=center;verticalAlign=middle;whiteSpace=wrap;rounded=0;fontSize=20;" vertex="1" parent="GySrszM3OudxkX1uvP5f-274">
          <mxGeometry x="230" y="340" width="320" height="30" as="geometry" />
        </mxCell>
        <mxCell id="GySrszM3OudxkX1uvP5f-31" value="&lt;font style=&quot;font-size: 19px;&quot;&gt;Customer&lt;/font&gt;" style="html=1;dashed=0;whiteSpace=wrap;fontSize=19;" vertex="1" parent="GySrszM3OudxkX1uvP5f-274">
          <mxGeometry y="129" width="120" height="80" as="geometry" />
        </mxCell>
        <mxCell id="GySrszM3OudxkX1uvP5f-32" value="" style="endArrow=classic;html=1;rounded=0;exitX=0.25;exitY=0;exitDx=0;exitDy=0;entryX=0;entryY=0.25;entryDx=0;entryDy=0;fontSize=16;" edge="1" parent="GySrszM3OudxkX1uvP5f-274" source="GySrszM3OudxkX1uvP5f-31" target="GySrszM3OudxkX1uvP5f-45">
          <mxGeometry relative="1" as="geometry">
            <mxPoint x="99" y="28" as="sourcePoint" />
            <mxPoint x="259" y="28" as="targetPoint" />
            <Array as="points">
              <mxPoint x="30" y="20" />
            </Array>
          </mxGeometry>
        </mxCell>
        <mxCell id="GySrszM3OudxkX1uvP5f-33" value="Customer Info" style="edgeLabel;resizable=0;html=1;align=center;verticalAlign=middle;fontSize=15;" connectable="0" vertex="1" parent="GySrszM3OudxkX1uvP5f-32">
          <mxGeometry relative="1" as="geometry" />
        </mxCell>
        <mxCell id="GySrszM3OudxkX1uvP5f-35" value="" style="endArrow=none;html=1;rounded=0;exitX=0.5;exitY=0;exitDx=0;exitDy=0;entryX=0;entryY=0.5;entryDx=0;entryDy=0;fontSize=16;startArrow=classic;startFill=1;endFill=0;" edge="1" parent="GySrszM3OudxkX1uvP5f-274" source="GySrszM3OudxkX1uvP5f-31" target="GySrszM3OudxkX1uvP5f-45">
          <mxGeometry relative="1" as="geometry">
            <mxPoint x="99" y="48" as="sourcePoint" />
            <mxPoint x="259" y="48" as="targetPoint" />
            <Array as="points">
              <mxPoint x="60" y="40" />
            </Array>
          </mxGeometry>
        </mxCell>
        <mxCell id="GySrszM3OudxkX1uvP5f-36" value="Customer Status" style="edgeLabel;resizable=0;html=1;align=center;verticalAlign=middle;fontSize=15;" connectable="0" vertex="1" parent="GySrszM3OudxkX1uvP5f-35">
          <mxGeometry relative="1" as="geometry" />
        </mxCell>
        <mxCell id="GySrszM3OudxkX1uvP5f-38" value="" style="endArrow=classic;html=1;rounded=0;exitX=0;exitY=0.75;exitDx=0;exitDy=0;fontSize=16;entryX=0.75;entryY=0;entryDx=0;entryDy=0;" edge="1" parent="GySrszM3OudxkX1uvP5f-274" source="GySrszM3OudxkX1uvP5f-45" target="GySrszM3OudxkX1uvP5f-31">
          <mxGeometry relative="1" as="geometry">
            <mxPoint x="259" y="68" as="sourcePoint" />
            <mxPoint x="99" y="68" as="targetPoint" />
            <Array as="points">
              <mxPoint x="90" y="60" />
            </Array>
          </mxGeometry>
        </mxCell>
        <mxCell id="GySrszM3OudxkX1uvP5f-39" value="Bill Info" style="edgeLabel;resizable=0;html=1;align=center;verticalAlign=middle;fontSize=15;" connectable="0" vertex="1" parent="GySrszM3OudxkX1uvP5f-38">
          <mxGeometry relative="1" as="geometry" />
        </mxCell>
        <mxCell id="GySrszM3OudxkX1uvP5f-43" value="" style="group" vertex="1" connectable="0" parent="GySrszM3OudxkX1uvP5f-274">
          <mxGeometry x="290" width="200" height="80" as="geometry" />
        </mxCell>
        <mxCell id="GySrszM3OudxkX1uvP5f-45" value="Manage Customer Information" style="rounded=1;whiteSpace=wrap;html=1;fontSize=19;verticalAlign=bottom;horizontal=1;noLabel=0;container=0;" vertex="1" parent="GySrszM3OudxkX1uvP5f-43">
          <mxGeometry width="200" height="80" as="geometry">
            <mxRectangle width="210" height="60" as="alternateBounds" />
          </mxGeometry>
        </mxCell>
        <UserObject label="1.1" id="GySrszM3OudxkX1uvP5f-46">
          <mxCell style="text;html=1;strokeColor=none;fillColor=none;align=center;verticalAlign=bottom;whiteSpace=wrap;rounded=0;container=0;movable=1;resizable=1;rotatable=1;deletable=1;editable=1;locked=0;connectable=1;" vertex="1" parent="GySrszM3OudxkX1uvP5f-43">
            <mxGeometry width="200" height="20" as="geometry" />
          </mxCell>
        </UserObject>
        <mxCell id="GySrszM3OudxkX1uvP5f-47" value="" style="endArrow=none;html=1;rounded=0;entryX=0;entryY=0.25;entryDx=0;entryDy=0;exitX=1;exitY=0.25;exitDx=0;exitDy=0;movable=1;resizable=1;rotatable=1;deletable=1;editable=1;locked=0;connectable=1;" edge="1" parent="GySrszM3OudxkX1uvP5f-43" source="GySrszM3OudxkX1uvP5f-45" target="GySrszM3OudxkX1uvP5f-45">
          <mxGeometry width="50" height="50" relative="1" as="geometry">
            <mxPoint x="805" y="640" as="sourcePoint" />
            <mxPoint x="755" y="740" as="targetPoint" />
          </mxGeometry>
        </mxCell>
        <mxCell id="GySrszM3OudxkX1uvP5f-107" style="edgeStyle=orthogonalEdgeStyle;rounded=0;orthogonalLoop=1;jettySize=auto;html=1;exitX=0.25;exitY=0;exitDx=0;exitDy=0;entryX=1;entryY=0.75;entryDx=0;entryDy=0;" edge="1" parent="GySrszM3OudxkX1uvP5f-274" source="GySrszM3OudxkX1uvP5f-51" target="GySrszM3OudxkX1uvP5f-45">
          <mxGeometry relative="1" as="geometry" />
        </mxCell>
        <mxCell id="GySrszM3OudxkX1uvP5f-110" value="Customer Info" style="edgeLabel;html=1;align=center;verticalAlign=middle;resizable=0;points=[];fontSize=15;" vertex="1" connectable="0" parent="GySrszM3OudxkX1uvP5f-107">
          <mxGeometry x="0.4388" y="2" relative="1" as="geometry">
            <mxPoint as="offset" />
          </mxGeometry>
        </mxCell>
        <mxCell id="GySrszM3OudxkX1uvP5f-51" value="Employee" style="html=1;dashed=0;whiteSpace=wrap;fontSize=19;" vertex="1" parent="GySrszM3OudxkX1uvP5f-274">
          <mxGeometry x="640" y="127" width="120" height="82" as="geometry" />
        </mxCell>
        <mxCell id="GySrszM3OudxkX1uvP5f-108" style="edgeStyle=orthogonalEdgeStyle;rounded=0;orthogonalLoop=1;jettySize=auto;html=1;entryX=1;entryY=0.375;entryDx=0;entryDy=0;entryPerimeter=0;" edge="1" parent="GySrszM3OudxkX1uvP5f-274" source="GySrszM3OudxkX1uvP5f-51" target="GySrszM3OudxkX1uvP5f-45">
          <mxGeometry relative="1" as="geometry">
            <Array as="points">
              <mxPoint x="690" y="30" />
            </Array>
          </mxGeometry>
        </mxCell>
        <mxCell id="GySrszM3OudxkX1uvP5f-109" value="Customer Status" style="edgeLabel;html=1;align=center;verticalAlign=middle;resizable=0;points=[];fontSize=15;" vertex="1" connectable="0" parent="GySrszM3OudxkX1uvP5f-108">
          <mxGeometry x="0.2539" y="1" relative="1" as="geometry">
            <mxPoint as="offset" />
          </mxGeometry>
        </mxCell>
        <mxCell id="GySrszM3OudxkX1uvP5f-210" value="" style="group;verticalAlign=middle;" vertex="1" connectable="0" parent="GySrszM3OudxkX1uvP5f-274">
          <mxGeometry x="290" y="129" width="200" height="80" as="geometry" />
        </mxCell>
        <mxCell id="GySrszM3OudxkX1uvP5f-211" value="Manage Reservations" style="rounded=1;whiteSpace=wrap;html=1;fontSize=19;verticalAlign=middle;horizontal=1;noLabel=0;container=0;align=center;" vertex="1" parent="GySrszM3OudxkX1uvP5f-210">
          <mxGeometry width="200" height="80" as="geometry">
            <mxRectangle width="210" height="60" as="alternateBounds" />
          </mxGeometry>
        </mxCell>
        <UserObject label="1.2" id="GySrszM3OudxkX1uvP5f-212">
          <mxCell style="text;html=1;strokeColor=none;fillColor=none;align=center;verticalAlign=bottom;whiteSpace=wrap;rounded=0;container=0;movable=1;resizable=1;rotatable=1;deletable=1;editable=1;locked=0;connectable=1;" vertex="1" parent="GySrszM3OudxkX1uvP5f-210">
            <mxGeometry width="200" height="20" as="geometry" />
          </mxCell>
        </UserObject>
        <mxCell id="GySrszM3OudxkX1uvP5f-213" value="" style="endArrow=none;html=1;rounded=0;entryX=0;entryY=0.25;entryDx=0;entryDy=0;exitX=1;exitY=0.25;exitDx=0;exitDy=0;movable=1;resizable=1;rotatable=1;deletable=1;editable=1;locked=0;connectable=1;" edge="1" parent="GySrszM3OudxkX1uvP5f-210" source="GySrszM3OudxkX1uvP5f-211" target="GySrszM3OudxkX1uvP5f-211">
          <mxGeometry width="50" height="50" relative="1" as="geometry">
            <mxPoint x="805" y="640" as="sourcePoint" />
            <mxPoint x="755" y="740" as="targetPoint" />
          </mxGeometry>
        </mxCell>
        <mxCell id="GySrszM3OudxkX1uvP5f-215" style="edgeStyle=orthogonalEdgeStyle;rounded=0;orthogonalLoop=1;jettySize=auto;html=1;exitX=1;exitY=0.25;exitDx=0;exitDy=0;entryX=0;entryY=0.25;entryDx=0;entryDy=0;" edge="1" parent="GySrszM3OudxkX1uvP5f-274" source="GySrszM3OudxkX1uvP5f-31" target="GySrszM3OudxkX1uvP5f-211">
          <mxGeometry relative="1" as="geometry" />
        </mxCell>
        <mxCell id="GySrszM3OudxkX1uvP5f-216" value="Customer Request" style="edgeLabel;html=1;align=center;verticalAlign=middle;resizable=0;points=[];fontSize=15;" vertex="1" connectable="0" parent="GySrszM3OudxkX1uvP5f-215">
          <mxGeometry x="-0.0067" relative="1" as="geometry">
            <mxPoint as="offset" />
          </mxGeometry>
        </mxCell>
        <mxCell id="GySrszM3OudxkX1uvP5f-217" style="edgeStyle=orthogonalEdgeStyle;rounded=0;orthogonalLoop=1;jettySize=auto;html=1;exitX=0;exitY=0.5;exitDx=0;exitDy=0;entryX=1;entryY=0.5;entryDx=0;entryDy=0;" edge="1" parent="GySrszM3OudxkX1uvP5f-274" source="GySrszM3OudxkX1uvP5f-211" target="GySrszM3OudxkX1uvP5f-31">
          <mxGeometry relative="1" as="geometry" />
        </mxCell>
        <mxCell id="GySrszM3OudxkX1uvP5f-218" value="Assigned Facilites" style="edgeLabel;html=1;align=center;verticalAlign=middle;resizable=0;points=[];fontSize=15;" vertex="1" connectable="0" parent="GySrszM3OudxkX1uvP5f-217">
          <mxGeometry x="0.0039" relative="1" as="geometry">
            <mxPoint as="offset" />
          </mxGeometry>
        </mxCell>
        <mxCell id="GySrszM3OudxkX1uvP5f-221" style="edgeStyle=orthogonalEdgeStyle;rounded=0;orthogonalLoop=1;jettySize=auto;html=1;entryX=1;entryY=0.5;entryDx=0;entryDy=0;" edge="1" parent="GySrszM3OudxkX1uvP5f-274" source="GySrszM3OudxkX1uvP5f-51" target="GySrszM3OudxkX1uvP5f-211">
          <mxGeometry relative="1" as="geometry" />
        </mxCell>
        <mxCell id="GySrszM3OudxkX1uvP5f-222" value="Job Department" style="edgeLabel;html=1;align=center;verticalAlign=middle;resizable=0;points=[];fontSize=15;" vertex="1" connectable="0" parent="GySrszM3OudxkX1uvP5f-221">
          <mxGeometry x="0.0362" y="-1" relative="1" as="geometry">
            <mxPoint as="offset" />
          </mxGeometry>
        </mxCell>
        <mxCell id="GySrszM3OudxkX1uvP5f-219" style="edgeStyle=orthogonalEdgeStyle;rounded=0;orthogonalLoop=1;jettySize=auto;html=1;exitX=0;exitY=0.75;exitDx=0;exitDy=0;entryX=1;entryY=0.75;entryDx=0;entryDy=0;" edge="1" parent="GySrszM3OudxkX1uvP5f-274" source="GySrszM3OudxkX1uvP5f-211" target="GySrszM3OudxkX1uvP5f-31">
          <mxGeometry relative="1" as="geometry" />
        </mxCell>
        <mxCell id="GySrszM3OudxkX1uvP5f-220" value="Reservation Info" style="edgeLabel;html=1;align=center;verticalAlign=middle;resizable=0;points=[];fontSize=15;" vertex="1" connectable="0" parent="GySrszM3OudxkX1uvP5f-219">
          <mxGeometry relative="1" as="geometry">
            <mxPoint as="offset" />
          </mxGeometry>
        </mxCell>
        <mxCell id="GySrszM3OudxkX1uvP5f-223" value="" style="group;verticalAlign=middle;" vertex="1" connectable="0" parent="GySrszM3OudxkX1uvP5f-274">
          <mxGeometry x="290" y="240" width="200" height="80" as="geometry" />
        </mxCell>
        <mxCell id="GySrszM3OudxkX1uvP5f-224" value="Manage Employee" style="rounded=1;whiteSpace=wrap;html=1;fontSize=19;verticalAlign=middle;horizontal=1;noLabel=0;container=0;align=center;" vertex="1" parent="GySrszM3OudxkX1uvP5f-223">
          <mxGeometry width="200" height="80" as="geometry">
            <mxRectangle width="210" height="60" as="alternateBounds" />
          </mxGeometry>
        </mxCell>
        <UserObject label="1.3" id="GySrszM3OudxkX1uvP5f-225">
          <mxCell style="text;html=1;strokeColor=none;fillColor=none;align=center;verticalAlign=bottom;whiteSpace=wrap;rounded=0;container=0;movable=1;resizable=1;rotatable=1;deletable=1;editable=1;locked=0;connectable=1;" vertex="1" parent="GySrszM3OudxkX1uvP5f-223">
            <mxGeometry width="200" height="20" as="geometry" />
          </mxCell>
        </UserObject>
        <mxCell id="GySrszM3OudxkX1uvP5f-226" value="" style="endArrow=none;html=1;rounded=0;entryX=0;entryY=0.25;entryDx=0;entryDy=0;exitX=1;exitY=0.25;exitDx=0;exitDy=0;movable=1;resizable=1;rotatable=1;deletable=1;editable=1;locked=0;connectable=1;" edge="1" parent="GySrszM3OudxkX1uvP5f-223" source="GySrszM3OudxkX1uvP5f-224" target="GySrszM3OudxkX1uvP5f-224">
          <mxGeometry width="50" height="50" relative="1" as="geometry">
            <mxPoint x="805" y="640" as="sourcePoint" />
            <mxPoint x="755" y="740" as="targetPoint" />
          </mxGeometry>
        </mxCell>
        <mxCell id="GySrszM3OudxkX1uvP5f-227" style="edgeStyle=orthogonalEdgeStyle;rounded=0;orthogonalLoop=1;jettySize=auto;html=1;exitX=1;exitY=0.75;exitDx=0;exitDy=0;entryX=0.75;entryY=1;entryDx=0;entryDy=0;" edge="1" parent="GySrszM3OudxkX1uvP5f-274" source="GySrszM3OudxkX1uvP5f-224" target="GySrszM3OudxkX1uvP5f-51">
          <mxGeometry relative="1" as="geometry" />
        </mxCell>
        <mxCell id="GySrszM3OudxkX1uvP5f-228" value="Assigned Department" style="edgeLabel;html=1;align=center;verticalAlign=middle;resizable=0;points=[];fontSize=15;" vertex="1" connectable="0" parent="GySrszM3OudxkX1uvP5f-227">
          <mxGeometry x="-0.285" y="2" relative="1" as="geometry">
            <mxPoint as="offset" />
          </mxGeometry>
        </mxCell>
        <mxCell id="GySrszM3OudxkX1uvP5f-229" style="edgeStyle=orthogonalEdgeStyle;rounded=0;orthogonalLoop=1;jettySize=auto;html=1;entryX=1;entryY=0.25;entryDx=0;entryDy=0;exitX=0.25;exitY=1;exitDx=0;exitDy=0;" edge="1" parent="GySrszM3OudxkX1uvP5f-274" source="GySrszM3OudxkX1uvP5f-51" target="GySrszM3OudxkX1uvP5f-224">
          <mxGeometry relative="1" as="geometry" />
        </mxCell>
        <mxCell id="GySrszM3OudxkX1uvP5f-230" value="Employee Info" style="edgeLabel;html=1;align=center;verticalAlign=middle;resizable=0;points=[];fontSize=15;" vertex="1" connectable="0" parent="GySrszM3OudxkX1uvP5f-229">
          <mxGeometry x="0.2063" y="-2" relative="1" as="geometry">
            <mxPoint as="offset" />
          </mxGeometry>
        </mxCell>
      </root>
    </mxGraphModel>
  </diagram>
</mxfile>
